<?xml version="1.0" encoding="iso-8859-1"?>
<!-- Generator: Adobe Illustrator 19.0.0, SVG Export Plug-In . SVG Version: 6.00 Build 0)  -->
<svg version="1.1" id="Layer_1" xmlns="http://www.w3.org/2000/svg" xmlns:xlink="http://www.w3.org/1999/xlink" x="0px" y="0px"
	 viewBox="0 0 485 485" style="enable-background:new 0 0 485 485;" xml:space="preserve">
<g>
	<g id="XMLID_21_">
		<g>
			<g>
				<path style="fill:#1BD741;" d="M472.5,200c0,67.4-45,115-105,160.3L217.5,475v-85v-5c-117.3-8.7-205-85.9-205-185
					c0-104.9,103-190,230-190S472.5,95.1,472.5,200z"/>
			</g>
		</g>
		<g>
			<g>
				<path style="fill:#231F20;" d="M217.499,485c-1.509,0-3.025-0.341-4.43-1.035c-3.41-1.686-5.569-5.16-5.569-8.965v-80.859
					c-55.561-5.869-106.106-27.1-143.16-60.292C24.462,298.125,2.5,250.591,2.5,200c0-53.773,25.217-104.22,71.006-142.047
					C118.743,20.581,178.76,0,242.5,0s123.757,20.581,168.994,57.953C457.283,95.78,482.5,146.227,482.5,200
					c0,33.704-10.432,64.546-31.891,94.289c-17.076,23.668-41.57,47.179-77.084,73.992L223.574,482.944
					C221.796,484.303,219.655,485,217.499,485z M242.5,20c-121.309,0-220,80.748-220,180c0,44.829,19.599,87.073,55.185,118.952
					c35.83,32.096,85.746,52.011,140.555,56.076c5.222,0.387,9.261,4.737,9.261,9.973v69.765l133.926-102.409
					C413.945,312.704,462.5,266.832,462.5,200C462.5,100.748,363.809,20,242.5,20z"/>
			</g>
		</g>
	</g>
	<g>
		<path style="fill:#FFFFFF;" d="M279.082,206.006c0.166-3.76,0.303-35.307,0.41-49.111c0.039-7.461,3.779-11.729,9.99-11.813
			c6.27-0.072,10.186,4.094,10.225,11.574c0.098,26.273,0.02,52.539,0.049,78.822c0,5.396-1.758,9.557-7.305,11.439
			c-5.664,1.926-9.277-1.094-12.432-5.223c-12.725-16.457-25.449-32.883-38.203-49.297c-1.113-1.426-2.334-2.76-4.844-3.902
			c0,2.523,0,5.043,0,7.559c0,13.047,0.117,26.094-0.059,39.121c-0.088,9.547-7.207,14.883-14.727,11.344
			c-4.258-2.012-6.025-5.762-6.035-10.133c-0.098-26.645-0.098-53.285,0-79.941c0.01-5.094,2.275-9.313,7.441-10.928
			c5.186-1.627,9.141,0.826,12.266,4.893C248.643,167.041,276.719,203.246,279.082,206.006z"/>
		<path style="fill:#FFFFFF;" d="M338.398,207.236c0,6.439,0,12.572,0,19.643c9.521,0,18.906-0.066,28.262,0.055
			c2.588,0.02,5.293,0.211,7.803,0.977c4.678,1.43,6.943,4.863,6.777,9.844c-0.146,4.75-2.568,7.797-7.031,9.105
			c-1.973,0.578-4.063,0.859-6.113,0.879c-12.461,0.051-24.912,0.07-37.412,0.012c-9.385-0.039-13.496-4.043-13.516-13.463
			c-0.098-25.313-0.098-50.639,0-75.963c0.02-9.57,3.867-13.289,13.477-13.314c13.408-0.029,26.816,0,40.225,0.033
			c5.166,0.016,8.818,2.564,10.068,7.467c1.279,4.805-0.137,9.252-4.902,11.475c-2.432,1.143-5.449,1.338-8.203,1.416
			c-7.529,0.182-15.107,0.033-22.647,0.098c-2.236,0.006-4.433,0.307-6.357,0.455c-0.371,0.912-0.615,1.25-0.645,1.615
			c-1.719,18.389-1.719,18.389,16.621,18.389c4.951,0.004,9.854-0.068,14.775,0.02c7.07,0.133,11.387,3.766,11.641,9.652
			c0.293,6.549-3.76,10.781-11.484,11.07c-8.867,0.316-17.773,0.068-26.65,0.117C341.631,206.832,340.185,207.07,338.398,207.236z"
			/>
		<path style="fill:#FFFFFF;" d="M123.359,226.879c9.473,0,18.096-0.014,26.758,0c2.07,0,4.15-0.131,6.211,0.109
			c5.996,0.711,10.166,4.936,10.264,10.199c0.088,5.484-4.268,10.113-10.527,10.465c-6.416,0.332-12.842,0.098-19.248,0.098
			c-7.363,0-14.746,0.117-22.09-0.012c-8.184-0.164-12.148-4.16-12.188-12.324c-0.059-25.697-0.039-51.371-0.02-77.059
			c0-8.742,3.662-13.336,10.43-13.273c6.533,0.051,10.352,4.855,10.381,13.477c0.068,20.207,0.029,40.426,0.029,60.631
			C123.359,221.426,123.359,223.682,123.359,226.879z"/>
		<path style="fill:#FFFFFF;" d="M198.613,196.65c0,13.424,0.02,26.83-0.02,40.244c-0.039,8.023-2.813,10.895-10.254,10.855
			c-7.236-0.012-10.029-2.773-10.049-10.465c-0.088-27.412-0.088-54.805,0-82.207c0.02-7.734,2.607-10.088,10.254-10.068
			c7.51,0.01,9.99,2.475,10.049,10.26C198.633,169.072,198.613,182.855,198.613,196.65z"/>
	</g>
</g>
<g>
</g>
<g>
</g>
<g>
</g>
<g>
</g>
<g>
</g>
<g>
</g>
<g>
</g>
<g>
</g>
<g>
</g>
<g>
</g>
<g>
</g>
<g>
</g>
<g>
</g>
<g>
</g>
<g>
</g>
</svg>
